<?xml version="1.0" encoding="utf-8"?>
<!-- Generator: Adobe Illustrator 15.0.0, SVG Export Plug-In . SVG Version: 6.00 Build 0)  -->
<!DOCTYPE svg PUBLIC "-//W3C//DTD SVG 1.1//EN" "http://www.w3.org/Graphics/SVG/1.1/DTD/svg11.dtd">
<svg version="1.1" id="Layer_1" xmlns="http://www.w3.org/2000/svg" xmlns:xlink="http://www.w3.org/1999/xlink" x="0px" y="0px"
	 width="305.575px" height="66.45px" viewBox="0 0 305.575 66.45" enable-background="new 0 0 305.575 66.45" xml:space="preserve">
<g>
	<path fill="#FFFFFF" d="M7.38,20.49H0V9.99h27.96v10.5h-7.38v29.52H7.38V20.49z M14.76,45.21V16.23h8.58v-1.44H4.62v1.44h8.58
		v28.98H14.76z"/>
	<path fill="#FFFFFF" d="M30.06,9.99h12.78v13.62h7.14V9.99h12.84v40.02h-12.84V35.19h-7.14v14.82H30.06V9.99z M37.62,45.21V30.03
		h17.64v15.18h1.56V14.79h-1.56v13.8H37.62v-13.8h-1.56v30.42H37.62z"/>
	<path fill="#FFFFFF" d="M67.019,9.99h23.58v10.5h-10.8v4.44h10.62v9.96h-10.62v4.62h11.22v10.5h-24V9.99z M86.579,45.21v-1.44h-12
		V30.63h11.4v-1.44h-11.4V16.23h12v-1.44h-13.56v30.42H86.579z"/>
	<path fill="#FFFFFF" d="M106.619,9.99h15.66c2,0,3.83,0.23,5.49,0.69c1.659,0.46,3.08,1.14,4.26,2.04c1.18,0.9,2.1,2.021,2.76,3.36
		c0.66,1.341,0.99,2.91,0.99,4.71c0,1.281-0.16,2.37-0.48,3.27c-0.32,0.9-0.66,1.65-1.02,2.25c-0.44,0.72-0.94,1.32-1.5,1.8
		c0.879,0.561,1.68,1.281,2.4,2.16c0.6,0.761,1.149,1.721,1.65,2.88c0.5,1.161,0.75,2.58,0.75,4.26c0,1.92-0.34,3.66-1.02,5.22
		c-0.681,1.56-1.65,2.89-2.91,3.99c-1.26,1.101-2.8,1.941-4.62,2.52c-1.82,0.581-3.85,0.87-6.09,0.87h-16.32V9.99z M121.259,45.21
		c3.519,0,6.12-0.76,7.8-2.28c1.68-1.52,2.52-3.54,2.52-6.06c0-1.64-0.351-2.949-1.05-3.93c-0.7-0.98-1.45-1.75-2.25-2.31
		c-1-0.64-2.1-1.08-3.3-1.32c0.96-0.279,1.82-0.72,2.58-1.32c0.68-0.52,1.29-1.23,1.83-2.13s0.81-2.049,0.81-3.45
		c0-2.52-0.801-4.419-2.4-5.7c-1.6-1.28-3.78-1.92-6.54-1.92h-8.64v30.42H121.259z M114.179,28.59V16.23h7.08
		c2.6,0,4.47,0.57,5.61,1.71c1.14,1.14,1.71,2.63,1.71,4.47c0,1.84-0.57,3.33-1.71,4.47c-1.14,1.14-3.01,1.71-5.61,1.71H114.179z
		 M114.179,43.77V30.03h7.02c1.239,0,2.39,0.13,3.45,0.39c1.06,0.26,1.989,0.66,2.79,1.2c0.8,0.54,1.43,1.251,1.89,2.13
		c0.459,0.88,0.69,1.92,0.69,3.12c0,2.44-0.81,4.2-2.43,5.28c-1.62,1.08-3.75,1.62-6.39,1.62H114.179z M123.418,22.17
		c0-1.839-1-2.76-3-2.76h-1.44v5.52h1.44C122.418,24.93,123.418,24.01,123.418,22.17z M120.418,40.59c3.04,0,4.56-1.16,4.56-3.48
		c0-2.319-1.521-3.48-4.56-3.48h-1.44v6.96H120.418z"/>
	<path fill="#FFFFFF" d="M140.277,9.99h13.32v29.52h11.04v10.5h-24.36V9.99z M161.277,45.21v-1.44h-13.439V14.79h-1.561v30.42
		H161.277z"/>
	<path fill="#FFFFFF" d="M178.618,9.99h9.6l15.18,40.02h-12.6l-1.32-3.6h-12.12l-1.319,3.6h-12.601L178.618,9.99z M172.378,45.21
		l1.14-3h19.8l1.141,3h1.68l-11.58-30.42h-2.28l-11.58,30.42H172.378z M183.418,16.23l9.359,24.54h-18.72L183.418,16.23z
		 M186.118,37.59l-2.7-7.02l-2.7,7.02H186.118z"/>
	<path fill="#FFFFFF" d="M204.297,9.99h10.5l11.04,15.42V9.99h12.54v40.02h-10.56l-10.98-15.36v15.36h-12.54V9.99z M211.438,45.21
		V17.49l19.8,27.72h1.56V14.79h-1.56v27.72l-19.8-27.72h-1.561v30.42H211.438z"/>
	<path fill="#FFFFFF" d="M242.576,9.99h12.96v9.24l7.561-9.24h15.66l-14.101,18.3l14.82,21.72h-15.42l-8.521-12.36v12.36h-12.96
		V9.99z M250.137,45.21v-8.1l6.24-7.74l10.92,15.84h1.859l-11.699-17.1l10.739-13.32h-1.92l-16.14,19.92V14.79h-1.561v30.42H250.137
		z"/>
	<path fill="#FFFFFF" d="M279.596,37.59c0.88,0.28,1.801,0.5,2.761,0.66c0.8,0.2,1.71,0.36,2.729,0.48
		c1.021,0.12,2.05,0.18,3.09,0.18c1.84,0,2.761-0.68,2.761-2.04c0-0.519-0.28-1.05-0.841-1.59s-1.27-1.14-2.13-1.8
		c-0.86-0.66-1.78-1.39-2.76-2.19c-0.98-0.799-1.9-1.719-2.76-2.76c-0.86-1.04-1.57-2.209-2.13-3.51
		c-0.561-1.299-0.84-2.79-0.84-4.47c0-1.88,0.339-3.54,1.02-4.98c0.68-1.44,1.62-2.64,2.82-3.6s2.609-1.689,4.229-2.19
		c1.62-0.5,3.35-0.75,5.19-0.75c0.96,0,1.92,0.051,2.88,0.15c0.96,0.101,1.819,0.19,2.58,0.27c0.879,0.12,1.74,0.24,2.58,0.36v11.22
		c-0.321-0.04-0.681-0.08-1.08-0.12c-0.32-0.039-0.681-0.08-1.08-0.12c-0.4-0.039-0.82-0.06-1.26-0.06c-0.24,0-0.54,0.01-0.9,0.03
		c-0.36,0.021-0.7,0.07-1.02,0.15c-0.321,0.081-0.601,0.22-0.841,0.42c-0.239,0.201-0.359,0.48-0.359,0.84
		c0,0.32,0.27,0.72,0.81,1.2s1.2,1.041,1.98,1.68c0.78,0.64,1.64,1.38,2.58,2.22c0.939,0.84,1.8,1.8,2.58,2.88
		c0.779,1.08,1.439,2.3,1.979,3.66c0.54,1.36,0.811,2.88,0.811,4.56c0,1.761-0.28,3.411-0.841,4.95
		c-0.561,1.54-1.431,2.88-2.609,4.02c-1.181,1.14-2.69,2.04-4.53,2.7c-1.84,0.66-4.02,0.99-6.54,0.99
		c-1.521,0-2.931-0.07-4.229-0.21c-1.301-0.141-2.451-0.311-3.45-0.51c-1.161-0.2-2.22-0.439-3.181-0.72V37.59z M284.636,44.79
		c0.561,0.12,1.16,0.221,1.801,0.3c0.56,0.081,1.149,0.15,1.77,0.21s1.25,0.09,1.89,0.09c1.12,0,2.21-0.129,3.271-0.39
		c1.06-0.26,2.01-0.69,2.85-1.29c0.841-0.6,1.51-1.37,2.011-2.31c0.499-0.939,0.75-2.09,0.75-3.45c0-1.16-0.291-2.259-0.87-3.3
		c-0.581-1.04-1.32-2.04-2.221-3c-0.899-0.96-1.859-1.88-2.88-2.76c-1.02-0.879-1.979-1.77-2.88-2.67c-0.899-0.9-1.641-1.8-2.22-2.7
		c-0.58-0.9-0.87-1.83-0.87-2.79c0-1.44,0.459-2.55,1.38-3.33c0.92-0.78,2.4-1.17,4.44-1.17c0.319,0,0.649,0.01,0.989,0.03
		c0.34,0.021,0.67,0.051,0.99,0.09c0.32,0.041,0.64,0.06,0.96,0.06v-1.56c-0.28,0-0.58-0.02-0.899-0.06
		c-0.28-0.039-0.591-0.069-0.931-0.09c-0.34-0.02-0.689-0.03-1.05-0.03c-2.16,0-3.94,0.49-5.34,1.47c-1.4,0.981-2.1,2.511-2.1,4.59
		c0,1.12,0.289,2.17,0.869,3.15c0.58,0.98,1.32,1.94,2.221,2.88c0.899,0.94,1.859,1.851,2.88,2.73c1.02,0.88,1.979,1.77,2.88,2.67
		s1.64,1.83,2.22,2.79s0.87,1.96,0.87,3c0,1.92-0.65,3.381-1.95,4.38c-1.3,1-3.09,1.5-5.37,1.5c-1.359,0-2.601-0.099-3.72-0.3
		c-0.6-0.08-1.18-0.18-1.74-0.3V44.79z"/>
</g>
</svg>
